<?xml version="1.0" standalone="no"?>
<!DOCTYPE svg PUBLIC "-//W3C//DTD SVG 20010904//EN"
 "http://www.w3.org/TR/2001/REC-SVG-20010904/DTD/svg10.dtd">
<svg version="1.0" xmlns="http://www.w3.org/2000/svg"
 width="220.000000pt" height="220.000000pt" viewBox="0 0 220.000000 220.000000"
 preserveAspectRatio="xMidYMid meet">
<metadata>
Created by potrace 1.11, written by Peter Selinger 2001-2013
</metadata>
<g transform="translate(0.000000,220.000000) scale(0.100000,-0.100000)"
fill="#000000" stroke="none">
<path d="M985 2018 c-81 -29 -156 -120 -182 -222 -16 -60 -16 -68 -1 -117 l17
-52 -43 -51 c-62 -73 -98 -130 -160 -247 -89 -170 -102 -237 -66 -353 22 -71
59 -121 124 -168 33 -24 36 -29 20 -34 -93 -30 -126 -68 -132 -153 -4 -53 -2
-59 33 -101 36 -43 37 -47 32 -105 -3 -33 -12 -79 -20 -103 -8 -23 -12 -44 -8
-46 3 -2 212 -5 464 -5 l457 -1 0 27 1 28 20 -27 c19 -26 25 -28 98 -28 43 0
80 3 83 6 3 3 -5 25 -18 48 -27 49 -64 150 -64 177 0 10 11 35 25 55 50 73 42
154 -21 224 -19 21 -55 46 -79 55 l-43 17 28 45 c104 164 41 432 -157 666 -56
67 -157 151 -200 168 -19 7 -21 12 -12 41 29 103 -5 207 -81 246 -48 24 -69
26 -115 10z m38 -535 c4 -4 33 -5 64 -4 31 1 59 -1 62 -6 3 -4 15 -13 26 -19
11 -6 20 -22 20 -34 0 -19 -10 -26 -55 -42 -41 -14 -60 -16 -72 -9 -10 6 -26
11 -35 11 -17 -1 -17 -1 0 -14 20 -15 8 -18 -135 -32 -62 -6 -68 -5 -68 12 0
16 -2 16 -10 4 -7 -12 -12 -12 -28 4 -26 23 -33 52 -17 66 7 6 41 22 76 35 47
19 66 22 76 14 9 -8 13 -8 13 -1 0 15 71 28 83 15z m-23 -430 c-1 -53 -2 -56
-15 -39 -20 27 -20 96 0 96 12 0 15 -13 15 -57z"/>
<path d="M1175 1410 c-3 -5 -1 -10 4 -10 6 0 11 5 11 10 0 6 -2 10 -4 10 -3 0
-8 -4 -11 -10z"/>
<path d="M1078 1383 c6 -2 18 -2 25 0 6 3 1 5 -13 5 -14 0 -19 -2 -12 -5z"/>
</g>
</svg>
